<svg version="1.1" xmlns="http://www.w3.org/2000/svg" xmlns:xlink="http://www.w3.org/1999/xlink" width="500" height="500"><defs><linearGradient x1="50" y1="215.09572" x2="50" y2="284.90428" gradientUnits="userSpaceOnUse" id="color-1"><stop offset="0" stop-color="#4d5f7a"></stop><stop offset="1" stop-color="#7a4d7a"></stop></linearGradient></defs><g data-paper-data="{&quot;description&quot;:&quot;Logo for BITCHAIN\n=================\n\nThis logo was generated by MarkMaker at http://emblemmatic.org/markmaker/ and may be composed of elements designed by others.\n\nThe font is Rubik Bold Italic designed by Hubert and Fischer and released under the OFL license via Google Fonts: https://www.google.com/fonts/specimen/Rubik. The font includes this copyright statement: Copyright (c) 2015 by Hubert &amp; Fischer. All rights reserved.\n\nMarkMaker uses semantic data from the Princeton University WordNet database http://wordnet.princeton.edu and font descriptions from Google Fonts https://www.google.com/fonts.&quot;}" fill="url(#color-1)" fill-rule="nonzero" stroke="none" stroke-width="1" stroke-linecap="butt" stroke-linejoin="miter" stroke-miterlimit="10" stroke-dasharray="" stroke-dashoffset="0" font-family="none" font-weight="none" font-size="none" text-anchor="none" style="mix-blend-mode: normal"><g data-paper-data="{&quot;elementType&quot;:&quot;logo&quot;}"><g data-paper-data="{&quot;elementType&quot;:&quot;text&quot;}"><g data-paper-data="{&quot;baseline&quot;:73,&quot;elementType&quot;:&quot;row&quot;}"><g data-paper-data="{&quot;baselineProportion&quot;:0.9864864864864865,&quot;fontSize&quot;:100,&quot;baseline&quot;:73,&quot;elementType&quot;:&quot;word&quot;}"><path d="M52.11978,283.96092c-0.6918,0 -1.24209,-0.25156 -1.65088,-0.75469c-0.40879,-0.50312 -0.55029,-1.10059 -0.42451,-1.79238l13.01835,-60.94098c0.12578,-0.6918 0.4874,-1.28926 1.08486,-1.79238c0.59746,-0.50312 1.24209,-0.75469 1.93389,-0.75469h29.43279c3.77344,0 6.98086,0.62891 9.62226,1.88672c2.6414,1.25781 4.74824,2.87724 6.3205,4.8583c1.57226,1.98105 2.60996,4.19795 3.11308,6.65068c0.50312,2.45273 0.50312,4.84258 0,7.16953c-0.37734,1.82383 -0.91191,3.41181 -1.60371,4.76396c-0.6918,1.35215 -1.41504,2.51562 -2.16973,3.49043c-0.75469,0.9748 -1.50937,1.76094 -2.26406,2.3584c-0.75469,0.59746 -1.35215,1.05342 -1.79238,1.36787c2.07539,1.69805 3.38037,3.66338 3.91494,5.89599c0.53457,2.23262 0.45596,4.92119 -0.23584,8.06572c-0.56602,2.57851 -1.33642,5.04697 -2.31123,7.40537c-0.9748,2.3584 -2.38984,4.43379 -4.24511,6.22617c-1.85527,1.79238 -4.26084,3.22314 -7.21669,4.29228c-2.95586,1.06914 -6.69785,1.60371 -11.22597,1.60371h-33.30057M70.0436,269.33886h15.56542c1.88672,0 3.52187,-0.55029 4.90547,-1.65088c1.38359,-1.10059 2.23262,-2.46846 2.54707,-4.10361c0.37734,-1.63516 0.11006,-3.00303 -0.80185,-4.10361c-0.91191,-1.10059 -2.31123,-1.65088 -4.19795,-1.65088h-15.56542zM97.118,237.92501c0.37734,-1.63516 0.17295,-2.94013 -0.61318,-3.91494c-0.78613,-0.9748 -2.12256,-1.46221 -4.00927,-1.46221h-14.62206l-2.26406,10.75429h14.62206c1.88672,0 3.42754,-0.4874 4.62246,-1.46221c1.19492,-0.9748 1.94961,-2.27978 2.26406,-3.91494" data-paper-data="{&quot;elementType&quot;:&quot;letter&quot;,&quot;baseline&quot;:70,&quot;baselineProportion&quot;:1,&quot;fontSize&quot;:100}"></path><path d="M133.34297,281.41385c-0.12578,0.6918 -0.4874,1.28926 -1.08486,1.79238c-0.59746,0.50312 -1.24209,0.75469 -1.93389,0.75469h-11.88632c-0.6918,0 -1.24209,-0.25156 -1.65088,-0.75469c-0.40879,-0.50312 -0.55029,-1.10059 -0.42451,-1.79238l9.33925,-43.96052c0.12578,-0.6918 0.50312,-1.28926 1.13203,-1.79238c0.62891,-0.50312 1.28926,-0.75469 1.98105,-0.75469h11.88632c0.6918,0 1.22637,0.25156 1.60371,0.75469c0.37734,0.50312 0.50312,1.10059 0.37734,1.79238l-9.33925,43.96052M144.85195,227.17072c-0.12578,0.6918 -0.4874,1.28926 -1.08486,1.79238c-0.59746,0.50312 -1.24209,0.75469 -1.93389,0.75469h-11.88632c-0.6918,0 -1.24209,-0.25156 -1.65088,-0.75469c-0.40879,-0.50312 -0.55029,-1.10059 -0.42451,-1.79238l2.07539,-9.52792c0.12578,-0.6918 0.50312,-1.28926 1.13203,-1.79238c0.62891,-0.50312 1.28926,-0.75469 1.98105,-0.75469h11.88632c0.6918,0 1.22637,0.25156 1.60371,0.75469c0.37734,0.50312 0.50312,1.10059 0.37734,1.79238z" data-paper-data="{&quot;elementType&quot;:&quot;letter&quot;,&quot;baseline&quot;:73,&quot;baselineProportion&quot;:1,&quot;fontSize&quot;:100}"></path><path d="M170.03963,264.81073c-0.31445,1.44648 -0.25156,2.56279 0.18867,3.34892c0.44023,0.78613 1.38359,1.1792 2.83008,1.1792h7.54687c0.6918,0 1.24209,0.25156 1.65088,0.75469c0.40879,0.50312 0.55029,1.10059 0.42451,1.79238l-2.07539,9.52792c-0.12578,0.6918 -0.4874,1.28926 -1.08486,1.79238c-0.59746,0.50312 -1.24209,0.75469 -1.93389,0.75469h-8.01855c-2.45273,0 -4.82685,-0.42451 -7.12236,-1.27353c-2.29551,-0.84902 -4.24511,-2.07539 -5.84882,-3.6791c-1.60371,-1.60371 -2.78291,-3.55332 -3.5376,-5.84882c-0.75469,-2.29551 -0.81758,-4.88974 -0.18867,-7.78271l3.39609,-15.84843h-6.98086c-0.6918,0 -1.22637,-0.25156 -1.60371,-0.75469c-0.37734,-0.50312 -0.50312,-1.10059 -0.37734,-1.79238l1.98105,-9.52792c0.12578,-0.6918 0.50312,-1.28926 1.13203,-1.79238c0.62891,-0.50312 1.28926,-0.75469 1.98105,-0.75469h6.98086l3.30176,-15.37675c0.12578,-0.6918 0.4874,-1.28926 1.08486,-1.79238c0.59746,-0.50312 1.24209,-0.75469 1.93389,-0.75469h11.88632c0.6918,0 1.24209,0.25156 1.65088,0.75469c0.40879,0.50312 0.55029,1.10059 0.42451,1.79238l-3.30176,15.37675h10.65995c0.6918,0 1.22637,0.25156 1.60371,0.75469c0.37734,0.50312 0.50312,1.10059 0.37734,1.79238l-1.98105,9.52792c-0.12578,0.6918 -0.50312,1.28926 -1.13203,1.79238c-0.62891,0.50312 -1.28926,0.75469 -1.98105,0.75469h-10.65995z" data-paper-data="{&quot;elementType&quot;:&quot;letter&quot;,&quot;baseline&quot;:71,&quot;baselineProportion&quot;:1,&quot;fontSize&quot;:100}"></path><path d="M209.00035,256.13183c-0.31445,0.94336 -0.59746,2.04394 -0.84902,3.30176c-0.25156,1.25781 -0.44023,2.3584 -0.56602,3.30176c-0.31445,2.26406 0.1415,4.08789 1.36787,5.47148c1.22637,1.38359 3.09736,2.07539 5.61298,2.07539c2.07539,0 3.72627,-0.29873 4.95263,-0.89619c1.22637,-0.59746 2.31123,-1.43076 3.25459,-2.4999c0.44023,-0.50312 0.89619,-0.94336 1.36787,-1.3207c0.47168,-0.37734 1.05342,-0.56602 1.74521,-0.56602h12.358c0.6918,0 1.25781,0.25156 1.69805,0.75469c0.44023,0.50312 0.53457,1.10059 0.28301,1.79238c-0.31445,1.00625 -0.91191,2.48418 -1.79238,4.43379c-0.88047,1.94961 -2.34267,3.88349 -4.38662,5.80166c-2.04394,1.91816 -4.79541,3.58476 -8.25439,4.9998c-3.45898,1.41504 -7.92421,2.12256 -13.39569,2.12256c-3.01875,0 -5.97461,-0.53457 -8.86757,-1.60371c-2.89297,-1.06914 -5.39287,-2.56279 -7.4997,-4.48095c-2.10683,-1.91816 -3.6791,-4.24511 -4.71679,-6.98086c-1.03769,-2.73574 -1.27353,-5.77021 -0.70752,-9.10341c0.18867,-0.94336 0.44023,-2.20117 0.75469,-3.77344c0.31445,-1.57226 0.59746,-2.83008 0.84902,-3.77344c1.63516,-6.6664 4.88974,-11.8706 9.76376,-15.61259c4.87402,-3.74199 11.33603,-5.61298 19.38602,-5.61298c4.52812,0 8.25439,0.70752 11.1788,2.12256c2.92441,1.41504 5.23564,3.08164 6.93369,4.9998c1.69805,1.91816 2.86152,3.85205 3.49043,5.80166c0.62891,1.94961 0.88047,3.42754 0.75469,4.43379c-0.12578,0.6918 -0.50312,1.28926 -1.13203,1.79238c-0.62891,0.50312 -1.28926,0.75469 -1.98105,0.75469h-12.358c-0.6918,0 -1.19492,-0.18867 -1.50937,-0.56602c-0.31445,-0.37734 -0.56602,-0.81758 -0.75469,-1.3207c-0.50312,-1.06914 -1.24209,-1.90244 -2.21689,-2.4999c-0.9748,-0.59746 -2.4999,-0.89619 -4.57529,-0.89619c-2.51562,0 -4.66963,0.6918 -6.46201,2.07539c-1.79238,1.38359 -3.03447,3.20742 -3.72627,5.47148z" data-paper-data="{&quot;elementType&quot;:&quot;letter&quot;,&quot;baseline&quot;:53,&quot;baselineProportion&quot;:0.9814814814814815,&quot;fontSize&quot;:100}"></path><path d="M295.60069,281.41385c-0.12578,0.6918 -0.4874,1.28926 -1.08486,1.79238c-0.59746,0.50312 -1.24209,0.75469 -1.93389,0.75469h-11.88632c-0.6918,0 -1.24209,-0.25156 -1.65088,-0.75469c-0.40879,-0.50312 -0.55029,-1.10059 -0.42451,-1.79238l5.09414,-23.86698c0.56602,-2.7043 0.36162,-4.87402 -0.61318,-6.50918c-0.9748,-1.63516 -2.87724,-2.45273 -5.70732,-2.45273c-2.83008,0 -5.06269,0.81758 -6.69785,2.45273c-1.63516,1.63516 -2.73574,3.80488 -3.30176,6.50918l-5.09414,23.86698c-0.12578,0.6918 -0.4874,1.28926 -1.08486,1.79238c-0.59746,0.50312 -1.24209,0.75469 -1.93389,0.75469h-11.88632c-0.6918,0 -1.24209,-0.25156 -1.65088,-0.75469c-0.40879,-0.50312 -0.55029,-1.10059 -0.42451,-1.79238l13.20702,-61.88434c0.12578,-0.6918 0.4874,-1.28926 1.08486,-1.79238c0.59746,-0.50312 1.24209,-0.75469 1.93389,-0.75469h11.88632c0.6918,0 1.24209,0.25156 1.65088,0.75469c0.40879,0.50312 0.55029,1.10059 0.42451,1.79238l-4.33945,20.09354c1.3207,-1.3207 3.09736,-2.59424 5.32998,-3.8206c2.23262,-1.22637 4.82685,-1.83955 7.78271,-1.83955c2.57851,0 5.04697,0.42451 7.40537,1.27353c2.3584,0.84902 4.3709,2.154 6.0375,3.91494c1.6666,1.76094 2.8458,3.99355 3.5376,6.69785c0.6918,2.7043 0.66035,5.91172 -0.09434,9.62226z" data-paper-data="{&quot;elementType&quot;:&quot;letter&quot;,&quot;baseline&quot;:71,&quot;baselineProportion&quot;:1,&quot;fontSize&quot;:100}"></path><path d="M334.2784,233.9629c1.82383,0 3.42754,0.18867 4.81113,0.56602c1.38359,0.37734 2.57851,0.84902 3.58476,1.41504c1.00625,0.56602 1.82383,1.1792 2.45273,1.83955c0.62891,0.66035 1.10059,1.27353 1.41504,1.83955l0.47168,-2.16973c0.12578,-0.6918 0.4874,-1.28926 1.08486,-1.79238c0.59746,-0.50312 1.24209,-0.75469 1.93389,-0.75469h11.88632c0.6918,0 1.24209,0.25156 1.65088,0.75469c0.40879,0.50312 0.55029,1.10059 0.42451,1.79238l-9.24492,43.96052c-0.12578,0.6918 -0.4874,1.28926 -1.08486,1.79238c-0.59746,0.50312 -1.24209,0.75469 -1.93389,0.75469h-11.98066c-0.6918,0 -1.24209,-0.25156 -1.65088,-0.75469c-0.40879,-0.50312 -0.55029,-1.10059 -0.42451,-1.79238l0.47168,-2.16973c-0.50312,0.75469 -1.10059,1.47793 -1.79238,2.16973c-0.6918,0.6918 -1.57226,1.30498 -2.6414,1.83955c-1.06914,0.53457 -2.37412,0.94336 -3.91494,1.22637c-1.54082,0.28301 -3.34892,0.42451 -5.42431,0.42451c-2.38984,0 -4.70107,-0.45596 -6.93369,-1.36787c-2.23262,-0.91191 -4.15078,-2.27978 -5.75449,-4.10361c-1.60371,-1.82383 -2.78291,-4.11933 -3.5376,-6.88652c-0.75469,-2.76719 -0.81758,-6.00605 -0.18867,-9.7166c0.06289,-0.44023 0.15723,-1.00625 0.28301,-1.69805c0.12578,-0.6918 0.26728,-1.39932 0.42451,-2.12256c0.15723,-0.72324 0.31445,-1.41504 0.47168,-2.07539c0.15723,-0.66035 0.29873,-1.24209 0.42451,-1.74521c0.94336,-3.71054 2.23262,-6.90224 3.86777,-9.57509c1.63516,-2.67285 3.52187,-4.87402 5.66015,-6.60351c2.13828,-1.72949 4.49668,-3.00303 7.07519,-3.8206c2.57851,-0.81758 5.28281,-1.22637 8.11289,-1.22637M326.16551,256.79218c-0.31445,0.94336 -0.55029,1.82383 -0.70752,2.6414c-0.15723,0.81758 -0.29873,1.69805 -0.42451,2.6414c-0.12578,1.13203 -0.12578,2.18545 0,3.16025c0.12578,0.9748 0.44023,1.83955 0.94336,2.59424c0.50312,0.75469 1.22637,1.35215 2.16973,1.79238c0.94336,0.44023 2.13828,0.66035 3.58476,0.66035c1.38359,0 2.60996,-0.22012 3.6791,-0.66035c1.06914,-0.44023 2.0125,-1.02197 2.83008,-1.74521c0.81758,-0.72324 1.49365,-1.5251 2.02822,-2.40556c0.53457,-0.88047 0.95908,-1.79238 1.27353,-2.73574c0.37734,-0.94336 0.6918,-2.04394 0.94336,-3.30176c0.25156,-1.25781 0.40879,-2.3584 0.47168,-3.30176c0.06289,-0.94336 0.01572,-1.85527 -0.1415,-2.73574c-0.15723,-0.88047 -0.4874,-1.68232 -0.99053,-2.40556c-0.50312,-0.72324 -1.19492,-1.30498 -2.07539,-1.74521c-0.88047,-0.44023 -2.0125,-0.66035 -3.39609,-0.66035c-2.95586,0 -5.21992,0.81758 -6.79218,2.45273c-1.57226,1.63516 -2.7043,3.55332 -3.39609,5.75449z" data-paper-data="{&quot;elementType&quot;:&quot;letter&quot;,&quot;baseline&quot;:53,&quot;baselineProportion&quot;:0.9814814814814815,&quot;fontSize&quot;:100}"></path><path d="M382.57837,281.41385c-0.12578,0.6918 -0.4874,1.28926 -1.08486,1.79238c-0.59746,0.50312 -1.24209,0.75469 -1.93389,0.75469h-11.88632c-0.6918,0 -1.24209,-0.25156 -1.65088,-0.75469c-0.40879,-0.50312 -0.55029,-1.10059 -0.42451,-1.79238l9.33925,-43.96052c0.12578,-0.6918 0.50312,-1.28926 1.13203,-1.79238c0.62891,-0.50312 1.28926,-0.75469 1.98105,-0.75469h11.88632c0.6918,0 1.22637,0.25156 1.60371,0.75469c0.37734,0.50312 0.50312,1.10059 0.37734,1.79238l-9.33925,43.96052M394.08734,227.17072c-0.12578,0.6918 -0.4874,1.28926 -1.08486,1.79238c-0.59746,0.50312 -1.24209,0.75469 -1.93389,0.75469h-11.88632c-0.6918,0 -1.24209,-0.25156 -1.65088,-0.75469c-0.40879,-0.50312 -0.55029,-1.10059 -0.42451,-1.79238l2.07539,-9.52792c0.12578,-0.6918 0.50312,-1.28926 1.13203,-1.79238c0.62891,-0.50312 1.28926,-0.75469 1.98105,-0.75469h11.88632c0.6918,0 1.22637,0.25156 1.60371,0.75469c0.37734,0.50312 0.50312,1.10059 0.37734,1.79238z" data-paper-data="{&quot;elementType&quot;:&quot;letter&quot;,&quot;baseline&quot;:73,&quot;baselineProportion&quot;:1,&quot;fontSize&quot;:100}"></path><path d="M443.80235,281.41385c-0.12578,0.6918 -0.4874,1.28926 -1.08486,1.79238c-0.59746,0.50312 -1.24209,0.75469 -1.93389,0.75469h-11.88632c-0.6918,0 -1.24209,-0.25156 -1.65088,-0.75469c-0.40879,-0.50312 -0.55029,-1.10059 -0.42451,-1.79238l5.09414,-23.86698c0.56602,-2.7043 0.36162,-4.87402 -0.61318,-6.50918c-0.9748,-1.63516 -2.87724,-2.45273 -5.70732,-2.45273c-2.83008,0 -5.06269,0.81758 -6.69785,2.45273c-1.63516,1.63516 -2.73574,3.80488 -3.30176,6.50918l-5.09414,23.86698c-0.12578,0.6918 -0.4874,1.28926 -1.08486,1.79238c-0.59746,0.50312 -1.24209,0.75469 -1.93389,0.75469h-11.88632c-0.6918,0 -1.24209,-0.25156 -1.65088,-0.75469c-0.40879,-0.50312 -0.55029,-1.10059 -0.42451,-1.79238l9.33925,-43.96052c0.12578,-0.6918 0.50312,-1.28926 1.13203,-1.79238c0.62891,-0.50312 1.28926,-0.75469 1.98105,-0.75469h11.41464c0.6918,0 1.22637,0.25156 1.60371,0.75469c0.37734,0.50312 0.50312,1.10059 0.37734,1.79238l-0.47168,2.16973c1.3207,-1.3207 3.08164,-2.59424 5.28281,-3.8206c2.20117,-1.22637 4.96836,-1.83955 8.30156,-1.83955c2.83008,0 5.44004,0.42451 7.82988,1.27353c2.38984,0.84902 4.38662,2.154 5.99033,3.91494c1.60371,1.76094 2.7043,3.99355 3.30176,6.69785c0.59746,2.7043 0.51885,5.91172 -0.23584,9.62226z" data-paper-data="{&quot;elementType&quot;:&quot;letter&quot;,&quot;baseline&quot;:53,&quot;baselineProportion&quot;:1,&quot;fontSize&quot;:100}"></path></g></g></g></g></g></svg>