<?xml version="1.0" encoding="UTF-8"?>
<svg xmlns="http://www.w3.org/2000/svg" xmlns:xlink="http://www.w3.org/1999/xlink" width="100px" height="100px" viewBox="0 0 100 100" version="1.1">
<defs>
<linearGradient id="linear0" gradientUnits="userSpaceOnUse" x1="50" y1="215.09572" x2="50" y2="284.90428" gradientTransform="matrix(0.2,0,0,0.2,0,0)">
<stop offset="0" style="stop-color:rgb(30.196078%,37.254902%,47.843137%);stop-opacity:1;"/>
<stop offset="1" style="stop-color:rgb(47.843137%,30.196078%,47.843137%);stop-opacity:1;"/>
</linearGradient>
<linearGradient id="linear1" gradientUnits="userSpaceOnUse" x1="50" y1="215.09572" x2="50" y2="284.90428" gradientTransform="matrix(0.2,0,0,0.2,0,0)">
<stop offset="0" style="stop-color:rgb(30.196078%,37.254902%,47.843137%);stop-opacity:1;"/>
<stop offset="1" style="stop-color:rgb(47.843137%,30.196078%,47.843137%);stop-opacity:1;"/>
</linearGradient>
<linearGradient id="linear2" gradientUnits="userSpaceOnUse" x1="50" y1="215.09572" x2="50" y2="284.90428" gradientTransform="matrix(0.2,0,0,0.2,0,0)">
<stop offset="0" style="stop-color:rgb(30.196078%,37.254902%,47.843137%);stop-opacity:1;"/>
<stop offset="1" style="stop-color:rgb(47.843137%,30.196078%,47.843137%);stop-opacity:1;"/>
</linearGradient>
<linearGradient id="linear3" gradientUnits="userSpaceOnUse" x1="50" y1="215.09572" x2="50" y2="284.90428" gradientTransform="matrix(0.2,0,0,0.2,0,0)">
<stop offset="0" style="stop-color:rgb(30.196078%,37.254902%,47.843137%);stop-opacity:1;"/>
<stop offset="1" style="stop-color:rgb(47.843137%,30.196078%,47.843137%);stop-opacity:1;"/>
</linearGradient>
<linearGradient id="linear4" gradientUnits="userSpaceOnUse" x1="50" y1="215.09572" x2="50" y2="284.90428" gradientTransform="matrix(0.2,0,0,0.2,0,0)">
<stop offset="0" style="stop-color:rgb(30.196078%,37.254902%,47.843137%);stop-opacity:1;"/>
<stop offset="1" style="stop-color:rgb(47.843137%,30.196078%,47.843137%);stop-opacity:1;"/>
</linearGradient>
<linearGradient id="linear5" gradientUnits="userSpaceOnUse" x1="50" y1="215.09572" x2="50" y2="284.90428" gradientTransform="matrix(0.2,0,0,0.2,0,0)">
<stop offset="0" style="stop-color:rgb(30.196078%,37.254902%,47.843137%);stop-opacity:1;"/>
<stop offset="1" style="stop-color:rgb(47.843137%,30.196078%,47.843137%);stop-opacity:1;"/>
</linearGradient>
<linearGradient id="linear6" gradientUnits="userSpaceOnUse" x1="50" y1="215.09572" x2="50" y2="284.90428" gradientTransform="matrix(0.2,0,0,0.2,0,0)">
<stop offset="0" style="stop-color:rgb(30.196078%,37.254902%,47.843137%);stop-opacity:1;"/>
<stop offset="1" style="stop-color:rgb(47.843137%,30.196078%,47.843137%);stop-opacity:1;"/>
</linearGradient>
<linearGradient id="linear7" gradientUnits="userSpaceOnUse" x1="50" y1="215.09572" x2="50" y2="284.90428" gradientTransform="matrix(0.2,0,0,0.2,0,0)">
<stop offset="0" style="stop-color:rgb(30.196078%,37.254902%,47.843137%);stop-opacity:1;"/>
<stop offset="1" style="stop-color:rgb(47.843137%,30.196078%,47.843137%);stop-opacity:1;"/>
</linearGradient>
</defs>
<g id="surface1">
<path style=" stroke:none;fill-rule:nonzero;fill:url(#linear0);" d="M 10.425781 56.792969 C 10.285156 56.792969 10.175781 56.742188 10.09375 56.640625 C 10.011719 56.539062 9.984375 56.421875 10.007812 56.28125 L 12.613281 44.09375 C 12.636719 43.957031 12.710938 43.835938 12.828125 43.734375 C 12.949219 43.636719 13.078125 43.585938 13.214844 43.585938 L 19.101562 43.585938 C 19.859375 43.585938 20.5 43.710938 21.027344 43.960938 C 21.554688 44.214844 21.976562 44.539062 22.292969 44.933594 C 22.605469 45.332031 22.8125 45.773438 22.914062 46.265625 C 23.015625 46.753906 23.015625 47.234375 22.914062 47.699219 C 22.839844 48.0625 22.730469 48.378906 22.59375 48.652344 C 22.453125 48.921875 22.308594 49.152344 22.160156 49.347656 C 22.007812 49.542969 21.859375 49.703125 21.707031 49.820312 C 21.554688 49.941406 21.4375 50.03125 21.347656 50.09375 C 21.761719 50.433594 22.023438 50.828125 22.132812 51.273438 C 22.238281 51.71875 22.222656 52.257812 22.082031 52.886719 C 21.96875 53.402344 21.816406 53.894531 21.621094 54.367188 C 21.425781 54.839844 21.144531 55.253906 20.773438 55.613281 C 20.402344 55.972656 19.921875 56.257812 19.328125 56.472656 C 18.738281 56.683594 17.988281 56.792969 17.085938 56.792969 L 10.425781 56.792969 M 14.007812 53.867188 L 17.121094 53.867188 C 17.5 53.867188 17.828125 53.757812 18.101562 53.539062 C 18.378906 53.316406 18.550781 53.042969 18.613281 52.71875 C 18.6875 52.390625 18.632812 52.117188 18.453125 51.894531 C 18.269531 51.675781 17.988281 51.566406 17.613281 51.566406 L 14.5 51.566406 Z M 19.421875 47.585938 C 19.5 47.257812 19.457031 46.996094 19.300781 46.800781 C 19.144531 46.605469 18.875 46.507812 18.5 46.507812 L 15.574219 46.507812 L 15.121094 48.660156 L 18.046875 48.660156 C 18.421875 48.660156 18.730469 48.5625 18.972656 48.367188 C 19.210938 48.171875 19.359375 47.910156 19.421875 47.585938 "/>
<path style=" stroke:none;fill-rule:nonzero;fill:url(#linear1);" d="M 26.667969 56.28125 C 26.644531 56.421875 26.570312 56.539062 26.453125 56.640625 C 26.332031 56.742188 26.203125 56.792969 26.066406 56.792969 L 23.6875 56.792969 C 23.550781 56.792969 23.4375 56.742188 23.355469 56.640625 C 23.277344 56.539062 23.246094 56.421875 23.273438 56.28125 L 25.140625 47.492188 C 25.164062 47.351562 25.242188 47.234375 25.367188 47.132812 C 25.492188 47.03125 25.625 46.980469 25.761719 46.980469 L 28.140625 46.980469 C 28.277344 46.980469 28.386719 47.03125 28.460938 47.132812 C 28.535156 47.234375 28.5625 47.351562 28.535156 47.492188 L 26.667969 56.28125 M 28.96875 45.433594 C 28.945312 45.574219 28.871094 45.691406 28.753906 45.792969 C 28.632812 45.894531 28.503906 45.945312 28.367188 45.945312 L 25.988281 45.945312 C 25.851562 45.945312 25.742188 45.894531 25.660156 45.792969 C 25.578125 45.691406 25.550781 45.574219 25.574219 45.433594 L 25.988281 43.527344 C 26.015625 43.390625 26.089844 43.269531 26.214844 43.171875 C 26.339844 43.070312 26.472656 43.019531 26.613281 43.019531 L 28.988281 43.019531 C 29.128906 43.019531 29.234375 43.070312 29.308594 43.171875 C 29.386719 43.269531 29.410156 43.390625 29.386719 43.527344 Z M 28.96875 45.433594 "/>
<path style=" stroke:none;fill-rule:nonzero;fill:url(#linear2);" d="M 34.007812 52.960938 C 33.945312 53.25 33.957031 53.476562 34.046875 53.632812 C 34.132812 53.789062 34.324219 53.867188 34.613281 53.867188 L 36.121094 53.867188 C 36.257812 53.867188 36.371094 53.917969 36.453125 54.019531 C 36.53125 54.121094 36.5625 54.238281 36.535156 54.378906 L 36.121094 56.28125 C 36.097656 56.421875 36.023438 56.539062 35.902344 56.640625 C 35.785156 56.742188 35.65625 56.792969 35.515625 56.792969 L 33.914062 56.792969 C 33.421875 56.792969 32.949219 56.707031 32.488281 56.539062 C 32.03125 56.367188 31.640625 56.121094 31.320312 55.800781 C 31 55.480469 30.761719 55.089844 30.613281 54.632812 C 30.460938 54.171875 30.449219 53.652344 30.574219 53.074219 L 31.253906 49.90625 L 29.855469 49.90625 C 29.71875 49.90625 29.613281 49.855469 29.535156 49.753906 C 29.460938 49.652344 29.4375 49.535156 29.460938 49.394531 L 29.855469 47.492188 C 29.882812 47.351562 29.957031 47.234375 30.082031 47.132812 C 30.210938 47.03125 30.339844 46.980469 30.480469 46.980469 L 31.875 46.980469 L 32.535156 43.90625 C 32.5625 43.765625 32.632812 43.648438 32.753906 43.546875 C 32.871094 43.445312 33 43.398438 33.140625 43.398438 L 35.515625 43.398438 C 35.65625 43.398438 35.765625 43.445312 35.847656 43.546875 C 35.929688 43.648438 35.957031 43.765625 35.933594 43.90625 L 35.273438 46.980469 L 37.402344 46.980469 C 37.542969 46.980469 37.648438 47.03125 37.726562 47.132812 C 37.800781 47.234375 37.824219 47.351562 37.800781 47.492188 L 37.402344 49.394531 C 37.378906 49.535156 37.304688 49.652344 37.175781 49.753906 C 37.050781 49.855469 36.917969 49.90625 36.78125 49.90625 L 34.648438 49.90625 Z M 34.007812 52.960938 "/>
<path style=" stroke:none;fill-rule:nonzero;fill:url(#linear3);" d="M 41.800781 51.226562 C 41.738281 51.414062 41.679688 51.636719 41.628906 51.886719 C 41.578125 52.136719 41.542969 52.359375 41.515625 52.546875 C 41.453125 53 41.546875 53.363281 41.789062 53.640625 C 42.035156 53.917969 42.410156 54.054688 42.914062 54.054688 C 43.328125 54.054688 43.660156 53.996094 43.902344 53.878906 C 44.148438 53.757812 44.367188 53.589844 44.554688 53.378906 C 44.644531 53.277344 44.734375 53.1875 44.828125 53.113281 C 44.921875 53.039062 45.039062 53 45.175781 53 L 47.648438 53 C 47.789062 53 47.902344 53.050781 47.988281 53.152344 C 48.078125 53.25 48.09375 53.371094 48.046875 53.507812 C 47.980469 53.710938 47.863281 54.007812 47.6875 54.394531 C 47.511719 54.785156 47.21875 55.171875 46.808594 55.554688 C 46.402344 55.941406 45.851562 56.273438 45.160156 56.554688 C 44.464844 56.839844 43.574219 56.980469 42.480469 56.980469 C 41.875 56.980469 41.285156 56.875 40.707031 56.660156 C 40.128906 56.445312 39.628906 56.148438 39.207031 55.765625 C 38.785156 55.378906 38.46875 54.914062 38.261719 54.367188 C 38.054688 53.820312 38.007812 53.214844 38.121094 52.546875 C 38.160156 52.359375 38.210938 52.105469 38.273438 51.792969 C 38.335938 51.476562 38.390625 51.226562 38.441406 51.039062 C 38.769531 49.703125 39.417969 48.664062 40.394531 47.914062 C 41.371094 47.167969 42.660156 46.792969 44.273438 46.792969 C 45.175781 46.792969 45.921875 46.933594 46.507812 47.21875 C 47.09375 47.5 47.554688 47.832031 47.894531 48.21875 C 48.234375 48.601562 48.464844 48.988281 48.59375 49.378906 C 48.71875 49.765625 48.769531 50.0625 48.742188 50.265625 C 48.71875 50.402344 48.640625 50.523438 48.515625 50.621094 C 48.390625 50.722656 48.257812 50.773438 48.121094 50.773438 L 45.648438 50.773438 C 45.511719 50.773438 45.410156 50.734375 45.347656 50.660156 C 45.285156 50.585938 45.234375 50.496094 45.195312 50.394531 C 45.09375 50.183594 44.949219 50.015625 44.753906 49.894531 C 44.558594 49.777344 44.253906 49.71875 43.835938 49.71875 C 43.335938 49.71875 42.902344 49.855469 42.546875 50.132812 C 42.1875 50.410156 41.9375 50.773438 41.800781 51.226562 Z M 41.800781 51.226562 "/>
<path style=" stroke:none;fill-rule:nonzero;fill:url(#linear4);" d="M 59.121094 56.28125 C 59.09375 56.421875 59.023438 56.539062 58.902344 56.640625 C 58.785156 56.742188 58.65625 56.792969 58.515625 56.792969 L 56.140625 56.792969 C 56 56.792969 55.890625 56.742188 55.808594 56.640625 C 55.726562 56.539062 55.699219 56.421875 55.722656 56.28125 L 56.742188 51.507812 C 56.855469 50.96875 56.816406 50.535156 56.621094 50.207031 C 56.425781 49.878906 56.042969 49.71875 55.480469 49.71875 C 54.914062 49.71875 54.464844 49.878906 54.140625 50.207031 C 53.8125 50.535156 53.59375 50.96875 53.480469 51.507812 L 52.460938 56.28125 C 52.433594 56.421875 52.363281 56.539062 52.242188 56.640625 C 52.125 56.742188 51.996094 56.792969 51.855469 56.792969 L 49.480469 56.792969 C 49.339844 56.792969 49.230469 56.742188 49.148438 56.640625 C 49.066406 56.539062 49.039062 56.421875 49.0625 56.28125 L 51.707031 43.90625 C 51.730469 43.765625 51.804688 43.648438 51.921875 43.546875 C 52.042969 43.445312 52.171875 43.398438 52.308594 43.398438 L 54.6875 43.398438 C 54.824219 43.398438 54.933594 43.445312 55.015625 43.546875 C 55.097656 43.648438 55.125 43.765625 55.101562 43.90625 L 54.234375 47.925781 C 54.496094 47.660156 54.851562 47.40625 55.300781 47.160156 C 55.746094 46.914062 56.265625 46.792969 56.855469 46.792969 C 57.371094 46.792969 57.867188 46.878906 58.335938 47.046875 C 58.808594 47.21875 59.210938 47.476562 59.542969 47.832031 C 59.878906 48.183594 60.113281 48.628906 60.253906 49.167969 C 60.390625 49.710938 60.382812 50.351562 60.234375 51.09375 Z M 59.121094 56.28125 "/>
<path style=" stroke:none;fill-rule:nonzero;fill:url(#linear5);" d="M 66.855469 46.792969 C 67.21875 46.792969 67.542969 46.832031 67.816406 46.90625 C 68.09375 46.980469 68.332031 47.074219 68.535156 47.1875 C 68.734375 47.300781 68.898438 47.425781 69.027344 47.558594 C 69.152344 47.6875 69.246094 47.8125 69.308594 47.925781 L 69.402344 47.492188 C 69.429688 47.351562 69.5 47.234375 69.621094 47.132812 C 69.738281 47.03125 69.867188 46.980469 70.007812 46.980469 L 72.382812 46.980469 C 72.523438 46.980469 72.632812 47.03125 72.714844 47.132812 C 72.796875 47.234375 72.824219 47.351562 72.800781 47.492188 L 70.949219 56.28125 C 70.925781 56.421875 70.851562 56.539062 70.734375 56.640625 C 70.613281 56.742188 70.484375 56.792969 70.347656 56.792969 L 67.949219 56.792969 C 67.8125 56.792969 67.703125 56.742188 67.621094 56.640625 C 67.539062 56.539062 67.507812 56.421875 67.535156 56.28125 L 67.628906 55.847656 C 67.527344 56 67.410156 56.144531 67.269531 56.28125 C 67.132812 56.421875 66.957031 56.542969 66.742188 56.652344 C 66.527344 56.757812 66.269531 56.839844 65.960938 56.894531 C 65.652344 56.953125 65.289062 56.980469 64.875 56.980469 C 64.398438 56.980469 63.933594 56.890625 63.488281 56.707031 C 63.042969 56.523438 62.65625 56.25 62.335938 55.886719 C 62.015625 55.523438 61.78125 55.0625 61.628906 54.507812 C 61.480469 53.957031 61.464844 53.308594 61.589844 52.566406 C 61.605469 52.476562 61.625 52.363281 61.648438 52.226562 C 61.671875 52.089844 61.703125 51.945312 61.734375 51.800781 C 61.765625 51.65625 61.796875 51.519531 61.828125 51.386719 C 61.859375 51.253906 61.886719 51.136719 61.914062 51.039062 C 62.101562 50.296875 62.359375 49.65625 62.6875 49.121094 C 63.011719 48.589844 63.390625 48.148438 63.816406 47.800781 C 64.246094 47.457031 64.71875 47.203125 65.234375 47.039062 C 65.75 46.875 66.289062 46.792969 66.855469 46.792969 M 65.234375 51.359375 C 65.171875 51.546875 65.121094 51.722656 65.089844 51.886719 C 65.058594 52.050781 65.03125 52.226562 65.007812 52.414062 C 64.980469 52.640625 64.980469 52.851562 65.007812 53.046875 C 65.03125 53.242188 65.09375 53.414062 65.195312 53.566406 C 65.296875 53.71875 65.441406 53.835938 65.628906 53.925781 C 65.816406 54.011719 66.058594 54.054688 66.347656 54.054688 C 66.621094 54.054688 66.867188 54.011719 67.082031 53.925781 C 67.296875 53.835938 67.484375 53.71875 67.648438 53.574219 C 67.8125 53.429688 67.945312 53.269531 68.054688 53.09375 C 68.160156 52.917969 68.246094 52.734375 68.308594 52.546875 C 68.382812 52.359375 68.445312 52.136719 68.496094 51.886719 C 68.546875 51.636719 68.578125 51.414062 68.589844 51.226562 C 68.605469 51.039062 68.59375 50.855469 68.5625 50.679688 C 68.53125 50.503906 68.464844 50.34375 68.363281 50.199219 C 68.265625 50.054688 68.125 49.9375 67.949219 49.847656 C 67.773438 49.761719 67.546875 49.71875 67.269531 49.71875 C 66.679688 49.71875 66.226562 49.878906 65.914062 50.207031 C 65.597656 50.535156 65.371094 50.917969 65.234375 51.359375 Z M 65.234375 51.359375 "/>
<path style=" stroke:none;fill-rule:nonzero;fill:url(#linear6);" d="M 76.515625 56.28125 C 76.492188 56.421875 76.417969 56.539062 76.296875 56.640625 C 76.179688 56.742188 76.050781 56.792969 75.910156 56.792969 L 73.535156 56.792969 C 73.394531 56.792969 73.285156 56.742188 73.203125 56.640625 C 73.121094 56.539062 73.09375 56.421875 73.121094 56.28125 L 74.988281 47.492188 C 75.011719 47.351562 75.089844 47.234375 75.214844 47.132812 C 75.339844 47.03125 75.472656 46.980469 75.609375 46.980469 L 77.988281 46.980469 C 78.125 46.980469 78.234375 47.03125 78.308594 47.132812 C 78.382812 47.234375 78.410156 47.351562 78.382812 47.492188 L 76.515625 56.28125 M 78.816406 45.433594 C 78.792969 45.574219 78.71875 45.691406 78.601562 45.792969 C 78.480469 45.894531 78.351562 45.945312 78.214844 45.945312 L 75.835938 45.945312 C 75.699219 45.945312 75.589844 45.894531 75.507812 45.792969 C 75.425781 45.691406 75.394531 45.574219 75.421875 45.433594 L 75.835938 43.527344 C 75.863281 43.390625 75.9375 43.269531 76.0625 43.171875 C 76.1875 43.070312 76.320312 43.019531 76.460938 43.019531 L 78.835938 43.019531 C 78.976562 43.019531 79.082031 43.070312 79.15625 43.171875 C 79.234375 43.269531 79.257812 43.390625 79.234375 43.527344 Z M 78.816406 45.433594 "/>
<path style=" stroke:none;fill-rule:nonzero;fill:url(#linear7);" d="M 88.761719 56.28125 C 88.734375 56.421875 88.664062 56.539062 88.542969 56.640625 C 88.425781 56.742188 88.296875 56.792969 88.15625 56.792969 L 85.78125 56.792969 C 85.640625 56.792969 85.53125 56.742188 85.449219 56.640625 C 85.367188 56.539062 85.339844 56.421875 85.363281 56.28125 L 86.382812 51.507812 C 86.496094 50.96875 86.457031 50.535156 86.261719 50.207031 C 86.066406 49.878906 85.683594 49.71875 85.117188 49.71875 C 84.554688 49.71875 84.105469 49.878906 83.78125 50.207031 C 83.453125 50.535156 83.230469 50.96875 83.121094 51.507812 L 82.101562 56.28125 C 82.074219 56.421875 82.003906 56.539062 81.882812 56.640625 C 81.765625 56.742188 81.636719 56.792969 81.496094 56.792969 L 79.121094 56.792969 C 78.980469 56.792969 78.871094 56.742188 78.789062 56.640625 C 78.707031 56.539062 78.679688 56.421875 78.703125 56.28125 L 80.570312 47.492188 C 80.597656 47.351562 80.671875 47.234375 80.796875 47.132812 C 80.925781 47.03125 81.054688 46.980469 81.195312 46.980469 L 83.476562 46.980469 C 83.617188 46.980469 83.722656 47.03125 83.796875 47.132812 C 83.875 47.234375 83.898438 47.351562 83.875 47.492188 L 83.78125 47.925781 C 84.042969 47.660156 84.394531 47.40625 84.835938 47.160156 C 85.277344 46.914062 85.828125 46.792969 86.496094 46.792969 C 87.0625 46.792969 87.585938 46.878906 88.0625 47.046875 C 88.539062 47.21875 88.941406 47.476562 89.261719 47.832031 C 89.582031 48.183594 89.800781 48.628906 89.921875 49.167969 C 90.039062 49.710938 90.023438 50.351562 89.875 51.09375 Z M 88.761719 56.28125 "/>
</g>
</svg>
